<?xml version="1.0" encoding="UTF-8" standalone="no"?>
<svg width="940px" height="590px" viewBox="0 0 940 590" version="1.1" xmlns="http://www.w3.org/2000/svg" xmlns:xlink="http://www.w3.org/1999/xlink">
    <!-- Generator: Sketch 3.6.1 (26313) - http://www.bohemiancoding.com/sketch -->
    <title>TUM_Logo_extern_oT_blau_WEB</title>
    <desc>Created with Sketch.</desc>
    <defs></defs>
    <g id="Page-1" stroke="none" stroke-width="1" fill="none" fill-rule="evenodd">
        <g id="TUM_Logo_extern_ohne_Text" transform="translate(0.000000, -702.000000)">
            <g id="TUM_Logo_extern_oT_blau_WEB" transform="translate(0.000000, 702.000000)">
                <path d="M0.06,590 L940,590 L940,0 L0.06,0 L0.06,590 Z" id="Fill-1" fill="#3070B3"></path>
                <path d="M471,100 L471,420 L391,420 L391,100 L101,100 L101,170 L171,170 L171,490 L241,490 L241,170 L321,170 L321,490 L541,490 L541,170 L621,170 L621,490 L691,490 L691,170 L771,170 L771,490 L841,490 L841,100 L471,100" id="Fill-2" fill="#FFFFFF"></path>
            </g>
        </g>
    </g>
</svg>