<svg id="RZ" xmlns="http://www.w3.org/2000/svg" viewBox="0 0 435 435"><defs><style>.cls-1{fill:#0065bd;}</style></defs><title>Zeichenfläche 1 Kopie 2</title><rect class="cls-1" x="83.13" y="343.9" width="162.52" height="6.5" transform="translate(-219.5 360.15) rotate(-66.6)"/><path class="cls-1" d="M410.22,141.45a201.93,201.93,0,0,0-78.85-96.11l-1.6,9.73a194.81,194.81,0,0,1,35.52,291.87l4.4,8.51a203.95,203.95,0,0,0,40.53-214Z"/><path class="cls-1" d="M27.06,200.57A194.67,194.67,0,0,1,264.14,26.67l6-7.83A203.8,203.8,0,0,0,17.85,203.19Z"/><path class="cls-1" d="M40.17,288A197,197,0,0,1,31,258.19l-5.84,1.66-2.84.81a207.39,207.39,0,0,0,9.44,30.62A202,202,0,0,0,115,390.1l3.61-8.34A193.09,193.09,0,0,1,40.17,288Z"/><path class="cls-1" d="M323.36,388.87l-2.79-5.39a197.53,197.53,0,0,1-28,13.73,193,193,0,0,1-122.15,7l-3.61,8.34a201.93,201.93,0,0,0,129.08-7,205.59,205.59,0,0,0,28.78-14.07Z"/><path class="cls-1" d="M17.82,229.2q.21,3.3.54,6.6L178.6,190.19,302.17,28.82l-33,200.54,76.44,148q2.63-2,5.18-4.13l-74.86-145,36.92-224L174.75,184.53Z"/></svg>